# xmcd
#
# Track frame offsets: 
#        150
#        12023
#        24324
#        38051
#        49405
#        61252
#        74974
#        88684
#        102075
#        115238
#        128047
#        140859
#        154154
#        166810
#        177915
#        191279
#        204263
#        217133
#        230877
#        241044
#        253976
#        267605
#        277103
#        288611
#        302297
#        312667
#        325731
#        336522
#
# Disc length: 4650 seconds
#
# Revision: 0
# Processed by: cddbd v1.5.2PL0 Copyright (c) Steve Scherf et al.
# Submitted via: ExactAudioCopyFreeDBPlugin 1.0
#
DISCID=af12281c
DTITLE=Percy Mayfield - Lost Love
DYEAR=2016
DGENRE=Blues
TTITLE0=Jack You Ain't Nowhere (Part 1)
TTITLE1=Jack You Ain't Nowhere (Part 2)
TTITLE2=Two Years Of Torture
TTITLE3=Woman Get Way Back
TTITLE4=Half Awake (Baby You're Still A Square)
TTITLE5=Two Years Of Torture (Supreme Version)
TTITLE6=How Wrong Can A Good Man Be
TTITLE7=Leary Blues
TTITLE8=Please Send Me Someone To Love
TTITLE9=Strange Things Happening
TTITLE10=Life Is Suicide
TTITLE11=Lost Love (Baby Please Come Back To Me)
TTITLE12=What A Fool I Was
TTITLE13=Nightless Lover
TTITLE14=Prayin' For Your Return
TTITLE15=My Blues
TTITLE16=Cry Baby
TTITLE17=Hopeless
TTITLE18=The Hunt Is On
TTITLE19=The Big Question
TTITLE20=Two Hearts Are Greater Than One
TTITLE21=Louisiana
TTITLE22=Lonesome Highway
TTITLE23=My Heart
TTITLE24=I Dare You, Baby
TTITLE25=The River's Invitation
TTITLE26=The Lonely One
TTITLE27=Lost Mind
EXTD=
EXTT0=
EXTT1=
EXTT2=
EXTT3=
EXTT4=
EXTT5=
EXTT6=
EXTT7=
EXTT8=
EXTT9=
EXTT10=
EXTT11=
EXTT12=
EXTT13=
EXTT14=
EXTT15=
EXTT16=
EXTT17=
EXTT18=
EXTT19=
EXTT20=
EXTT21=
EXTT22=
EXTT23=
EXTT24=
EXTT25=
EXTT26=
EXTT27=
PLAYORDER=
